<?xml version="1.0" encoding="utf-8"?>
<svg xmlns="http://www.w3.org/2000/svg" xmlns:xlink="http://www.w3.org/1999/xlink" width="600" height="400" viewBox="0 0 2400 1600">
<defs>
  <clipPath id="clip890">
    <rect x="0" y="0" width="2400" height="1600"/>
  </clipPath>
</defs>
<path clip-path="url(#clip890)" d="M0 1600 L2400 1600 L2400 8.88178e-14 L0 8.88178e-14  Z" fill="#ffffff" fill-rule="evenodd" fill-opacity="1"/>
<defs>
  <clipPath id="clip891">
    <rect x="222" y="47" width="2131" height="1365"/>
  </clipPath>
</defs>
<path clip-path="url(#clip890)" d="M222.69 1410.9 L2352.76 1410.9 L2352.76 47.2441 L222.69 47.2441  Z" fill="#ffffff" fill-rule="evenodd" fill-opacity="1"/>
<polyline clip-path="url(#clip891)" style="stroke:#000000; stroke-linecap:round; stroke-linejoin:round; stroke-width:2; stroke-opacity:0.1; fill:none" points="222.69,1410.9 222.69,47.2441 "/>
<polyline clip-path="url(#clip891)" style="stroke:#000000; stroke-linecap:round; stroke-linejoin:round; stroke-width:2; stroke-opacity:0.1; fill:none" points="1287.72,1410.9 1287.72,47.2441 "/>
<polyline clip-path="url(#clip891)" style="stroke:#000000; stroke-linecap:round; stroke-linejoin:round; stroke-width:2; stroke-opacity:0.1; fill:none" points="2352.76,1410.9 2352.76,47.2441 "/>
<polyline clip-path="url(#clip891)" style="stroke:#000000; stroke-linecap:round; stroke-linejoin:round; stroke-width:2; stroke-opacity:0.1; fill:none" points="222.69,1410.9 2352.76,1410.9 "/>
<polyline clip-path="url(#clip891)" style="stroke:#000000; stroke-linecap:round; stroke-linejoin:round; stroke-width:2; stroke-opacity:0.1; fill:none" points="222.69,956.346 2352.76,956.346 "/>
<polyline clip-path="url(#clip891)" style="stroke:#000000; stroke-linecap:round; stroke-linejoin:round; stroke-width:2; stroke-opacity:0.1; fill:none" points="222.69,501.795 2352.76,501.795 "/>
<polyline clip-path="url(#clip891)" style="stroke:#000000; stroke-linecap:round; stroke-linejoin:round; stroke-width:2; stroke-opacity:0.1; fill:none" points="222.69,47.2441 2352.76,47.2441 "/>
<polyline clip-path="url(#clip890)" style="stroke:#000000; stroke-linecap:round; stroke-linejoin:round; stroke-width:4; stroke-opacity:1; fill:none" points="222.69,1410.9 2352.76,1410.9 "/>
<polyline clip-path="url(#clip890)" style="stroke:#000000; stroke-linecap:round; stroke-linejoin:round; stroke-width:4; stroke-opacity:1; fill:none" points="222.69,1410.9 222.69,1392 "/>
<polyline clip-path="url(#clip890)" style="stroke:#000000; stroke-linecap:round; stroke-linejoin:round; stroke-width:4; stroke-opacity:1; fill:none" points="1287.72,1410.9 1287.72,1392 "/>
<polyline clip-path="url(#clip890)" style="stroke:#000000; stroke-linecap:round; stroke-linejoin:round; stroke-width:4; stroke-opacity:1; fill:none" points="2352.76,1410.9 2352.76,1392 "/>
<path clip-path="url(#clip890)" d="M188.134 1485.02 L195.773 1485.02 L195.773 1458.66 L187.463 1460.32 L187.463 1456.06 L195.726 1454.4 L200.402 1454.4 L200.402 1485.02 L208.041 1485.02 L208.041 1488.96 L188.134 1488.96 L188.134 1485.02 Z" fill="#000000" fill-rule="nonzero" fill-opacity="1" /><path clip-path="url(#clip890)" d="M227.486 1457.48 Q223.874 1457.48 222.046 1461.04 Q220.24 1464.58 220.24 1471.71 Q220.24 1478.82 222.046 1482.38 Q223.874 1485.92 227.486 1485.92 Q231.12 1485.92 232.925 1482.38 Q234.754 1478.82 234.754 1471.71 Q234.754 1464.58 232.925 1461.04 Q231.12 1457.48 227.486 1457.48 M227.486 1453.77 Q233.296 1453.77 236.351 1458.38 Q239.43 1462.96 239.43 1471.71 Q239.43 1480.44 236.351 1485.04 Q233.296 1489.63 227.486 1489.63 Q221.675 1489.63 218.597 1485.04 Q215.541 1480.44 215.541 1471.71 Q215.541 1462.96 218.597 1458.38 Q221.675 1453.77 227.486 1453.77 Z" fill="#000000" fill-rule="nonzero" fill-opacity="1" /><path clip-path="url(#clip890)" d="M252.125 1446.41 Q254.852 1446.99 256.376 1448.83 Q257.918 1450.68 257.918 1453.38 Q257.918 1457.54 255.059 1459.82 Q252.2 1462.09 246.934 1462.09 Q245.166 1462.09 243.286 1461.73 Q241.424 1461.4 239.43 1460.7 L239.43 1457.03 Q241.01 1457.95 242.891 1458.42 Q244.771 1458.89 246.821 1458.89 Q250.395 1458.89 252.257 1457.48 Q254.138 1456.07 254.138 1453.38 Q254.138 1450.9 252.389 1449.51 Q250.658 1448.1 247.555 1448.1 L244.282 1448.1 L244.282 1444.98 L247.705 1444.98 Q250.508 1444.98 251.994 1443.87 Q253.479 1442.74 253.479 1440.63 Q253.479 1438.47 251.937 1437.32 Q250.414 1436.16 247.555 1436.16 Q245.994 1436.16 244.207 1436.49 Q242.42 1436.83 240.276 1437.55 L240.276 1434.16 Q242.439 1433.56 244.32 1433.26 Q246.22 1432.96 247.893 1432.96 Q252.219 1432.96 254.739 1434.93 Q257.26 1436.89 257.26 1440.24 Q257.26 1442.57 255.924 1444.19 Q254.589 1445.79 252.125 1446.41 Z" fill="#000000" fill-rule="nonzero" fill-opacity="1" /><path clip-path="url(#clip890)" d="M1252.18 1485.02 L1259.82 1485.02 L1259.82 1458.66 L1251.51 1460.32 L1251.51 1456.06 L1259.77 1454.4 L1264.45 1454.4 L1264.45 1485.02 L1272.09 1485.02 L1272.09 1488.96 L1252.18 1488.96 L1252.18 1485.02 Z" fill="#000000" fill-rule="nonzero" fill-opacity="1" /><path clip-path="url(#clip890)" d="M1291.53 1457.48 Q1287.92 1457.48 1286.09 1461.04 Q1284.29 1464.58 1284.29 1471.71 Q1284.29 1478.82 1286.09 1482.38 Q1287.92 1485.92 1291.53 1485.92 Q1295.17 1485.92 1296.97 1482.38 Q1298.8 1478.82 1298.8 1471.71 Q1298.8 1464.58 1296.97 1461.04 Q1295.17 1457.48 1291.53 1457.48 M1291.53 1453.77 Q1297.34 1453.77 1300.4 1458.38 Q1303.48 1462.96 1303.48 1471.71 Q1303.48 1480.44 1300.4 1485.04 Q1297.34 1489.63 1291.53 1489.63 Q1285.72 1489.63 1282.64 1485.04 Q1279.59 1480.44 1279.59 1471.71 Q1279.59 1462.96 1282.64 1458.38 Q1285.72 1453.77 1291.53 1453.77 Z" fill="#000000" fill-rule="nonzero" fill-opacity="1" /><path clip-path="url(#clip890)" d="M1316.15 1436.78 L1306.56 1451.77 L1316.15 1451.77 L1316.15 1436.78 M1315.15 1433.47 L1319.93 1433.47 L1319.93 1451.77 L1323.94 1451.77 L1323.94 1454.93 L1319.93 1454.93 L1319.93 1461.55 L1316.15 1461.55 L1316.15 1454.93 L1303.48 1454.93 L1303.48 1451.26 L1315.15 1433.47 Z" fill="#000000" fill-rule="nonzero" fill-opacity="1" /><path clip-path="url(#clip890)" d="M2318.36 1485.02 L2326 1485.02 L2326 1458.66 L2317.69 1460.32 L2317.69 1456.06 L2325.95 1454.4 L2330.63 1454.4 L2330.63 1485.02 L2338.27 1485.02 L2338.27 1488.96 L2318.36 1488.96 L2318.36 1485.02 Z" fill="#000000" fill-rule="nonzero" fill-opacity="1" /><path clip-path="url(#clip890)" d="M2357.71 1457.48 Q2354.1 1457.48 2352.27 1461.04 Q2350.47 1464.58 2350.47 1471.71 Q2350.47 1478.82 2352.27 1482.38 Q2354.1 1485.92 2357.71 1485.92 Q2361.35 1485.92 2363.15 1482.38 Q2364.98 1478.82 2364.98 1471.71 Q2364.98 1464.58 2363.15 1461.04 Q2361.35 1457.48 2357.71 1457.48 M2357.71 1453.77 Q2363.52 1453.77 2366.58 1458.38 Q2369.66 1462.96 2369.66 1471.71 Q2369.66 1480.44 2366.58 1485.04 Q2363.52 1489.63 2357.71 1489.63 Q2351.9 1489.63 2348.82 1485.04 Q2345.77 1480.44 2345.77 1471.71 Q2345.77 1462.96 2348.82 1458.38 Q2351.9 1453.77 2357.71 1453.77 Z" fill="#000000" fill-rule="nonzero" fill-opacity="1" /><path clip-path="url(#clip890)" d="M2370.84 1433.47 L2385.75 1433.47 L2385.75 1436.66 L2374.32 1436.66 L2374.32 1443.55 Q2375.15 1443.27 2375.97 1443.13 Q2376.8 1442.98 2377.63 1442.98 Q2382.33 1442.98 2385.08 1445.56 Q2387.82 1448.14 2387.82 1452.54 Q2387.82 1457.07 2385 1459.59 Q2382.18 1462.09 2377.05 1462.09 Q2375.28 1462.09 2373.44 1461.79 Q2371.61 1461.49 2369.66 1460.89 L2369.66 1457.07 Q2371.35 1457.99 2373.15 1458.44 Q2374.96 1458.89 2376.97 1458.89 Q2380.23 1458.89 2382.12 1457.18 Q2384.02 1455.47 2384.02 1452.54 Q2384.02 1449.6 2382.12 1447.89 Q2380.23 1446.18 2376.97 1446.18 Q2375.45 1446.18 2373.92 1446.52 Q2372.42 1446.86 2370.84 1447.57 L2370.84 1433.47 Z" fill="#000000" fill-rule="nonzero" fill-opacity="1" /><path clip-path="url(#clip890)" d="M1014.09 1526.67 L1022.75 1526.67 L1043.82 1566.42 L1043.82 1526.67 L1050.06 1526.67 L1050.06 1574.19 L1041.4 1574.19 L1020.33 1534.43 L1020.33 1574.19 L1014.09 1574.19 L1014.09 1526.67 Z" fill="#000000" fill-rule="nonzero" fill-opacity="1" /><path clip-path="url(#clip890)" d="M1062 1560.12 L1062 1538.54 L1067.85 1538.54 L1067.85 1559.89 Q1067.85 1564.96 1069.82 1567.5 Q1071.8 1570.02 1075.75 1570.02 Q1080.49 1570.02 1083.22 1566.99 Q1085.99 1563.97 1085.99 1558.75 L1085.99 1538.54 L1091.85 1538.54 L1091.85 1574.19 L1085.99 1574.19 L1085.99 1568.71 Q1083.86 1571.96 1081.03 1573.55 Q1078.23 1575.11 1074.5 1575.11 Q1068.36 1575.11 1065.18 1571.29 Q1062 1567.47 1062 1560.12 M1076.73 1537.68 L1076.73 1537.68 Z" fill="#000000" fill-rule="nonzero" fill-opacity="1" /><path clip-path="url(#clip890)" d="M1131.67 1545.38 Q1133.86 1541.43 1136.92 1539.56 Q1139.98 1537.68 1144.11 1537.68 Q1149.68 1537.68 1152.71 1541.59 Q1155.73 1545.48 1155.73 1552.67 L1155.73 1574.19 L1149.84 1574.19 L1149.84 1552.86 Q1149.84 1547.74 1148.03 1545.25 Q1146.21 1542.77 1142.49 1542.77 Q1137.94 1542.77 1135.3 1545.79 Q1132.65 1548.82 1132.65 1554.04 L1132.65 1574.19 L1126.77 1574.19 L1126.77 1552.86 Q1126.77 1547.7 1124.95 1545.25 Q1123.14 1542.77 1119.35 1542.77 Q1114.86 1542.77 1112.22 1545.83 Q1109.58 1548.85 1109.58 1554.04 L1109.58 1574.19 L1103.69 1574.19 L1103.69 1538.54 L1109.58 1538.54 L1109.58 1544.08 Q1111.58 1540.8 1114.38 1539.24 Q1117.19 1537.68 1121.04 1537.68 Q1124.92 1537.68 1127.63 1539.65 Q1130.36 1541.62 1131.67 1545.38 Z" fill="#000000" fill-rule="nonzero" fill-opacity="1" /><path clip-path="url(#clip890)" d="M1193 1556.39 Q1193 1549.93 1190.33 1546.27 Q1187.69 1542.58 1183.04 1542.58 Q1178.39 1542.58 1175.72 1546.27 Q1173.08 1549.93 1173.08 1556.39 Q1173.08 1562.85 1175.72 1566.55 Q1178.39 1570.21 1183.04 1570.21 Q1187.69 1570.21 1190.33 1566.55 Q1193 1562.85 1193 1556.39 M1173.08 1543.95 Q1174.92 1540.77 1177.72 1539.24 Q1180.56 1537.68 1184.47 1537.68 Q1190.96 1537.68 1195.01 1542.83 Q1199.08 1547.99 1199.08 1556.39 Q1199.08 1564.8 1195.01 1569.95 Q1190.96 1575.11 1184.47 1575.11 Q1180.56 1575.11 1177.72 1573.58 Q1174.92 1572.02 1173.08 1568.84 L1173.08 1574.19 L1167.19 1574.19 L1167.19 1524.66 L1173.08 1524.66 L1173.08 1543.95 Z" fill="#000000" fill-rule="nonzero" fill-opacity="1" /><path clip-path="url(#clip890)" d="M1239.28 1554.9 L1239.28 1557.76 L1212.35 1557.76 Q1212.74 1563.81 1215.98 1566.99 Q1219.26 1570.14 1225.08 1570.14 Q1228.46 1570.14 1231.61 1569.32 Q1234.79 1568.49 1237.91 1566.83 L1237.91 1572.37 Q1234.76 1573.71 1231.45 1574.41 Q1228.14 1575.11 1224.73 1575.11 Q1216.2 1575.11 1211.21 1570.14 Q1206.24 1565.18 1206.24 1556.71 Q1206.24 1547.96 1210.95 1542.83 Q1215.7 1537.68 1223.72 1537.68 Q1230.91 1537.68 1235.08 1542.33 Q1239.28 1546.94 1239.28 1554.9 M1233.42 1553.18 Q1233.36 1548.37 1230.72 1545.51 Q1228.11 1542.64 1223.78 1542.64 Q1218.88 1542.64 1215.92 1545.41 Q1212.99 1548.18 1212.54 1553.21 L1233.42 1553.18 Z" fill="#000000" fill-rule="nonzero" fill-opacity="1" /><path clip-path="url(#clip890)" d="M1269.55 1544.01 Q1268.56 1543.44 1267.38 1543.18 Q1266.24 1542.9 1264.84 1542.9 Q1259.87 1542.9 1257.2 1546.14 Q1254.56 1549.36 1254.56 1555.41 L1254.56 1574.19 L1248.67 1574.19 L1248.67 1538.54 L1254.56 1538.54 L1254.56 1544.08 Q1256.4 1540.83 1259.36 1539.27 Q1262.32 1537.68 1266.56 1537.68 Q1267.16 1537.68 1267.89 1537.77 Q1268.63 1537.84 1269.52 1538 L1269.55 1544.01 Z" fill="#000000" fill-rule="nonzero" fill-opacity="1" /><path clip-path="url(#clip890)" d="M1310.23 1542.64 Q1305.52 1542.64 1302.78 1546.34 Q1300.04 1550 1300.04 1556.39 Q1300.04 1562.79 1302.75 1566.48 Q1305.48 1570.14 1310.23 1570.14 Q1314.9 1570.14 1317.64 1566.45 Q1320.38 1562.76 1320.38 1556.39 Q1320.38 1550.06 1317.64 1546.37 Q1314.9 1542.64 1310.23 1542.64 M1310.23 1537.68 Q1317.86 1537.68 1322.23 1542.64 Q1326.59 1547.61 1326.59 1556.39 Q1326.59 1565.15 1322.23 1570.14 Q1317.86 1575.11 1310.23 1575.11 Q1302.56 1575.11 1298.19 1570.14 Q1293.87 1565.15 1293.87 1556.39 Q1293.87 1547.61 1298.19 1542.64 Q1302.56 1537.68 1310.23 1537.68 Z" fill="#000000" fill-rule="nonzero" fill-opacity="1" /><path clip-path="url(#clip890)" d="M1354.34 1524.66 L1354.34 1529.53 L1348.74 1529.53 Q1345.59 1529.53 1344.35 1530.8 Q1343.14 1532.08 1343.14 1535.39 L1343.14 1538.54 L1352.78 1538.54 L1352.78 1543.09 L1343.14 1543.09 L1343.14 1574.19 L1337.25 1574.19 L1337.25 1543.09 L1331.65 1543.09 L1331.65 1538.54 L1337.25 1538.54 L1337.25 1536.05 Q1337.25 1530.1 1340.02 1527.4 Q1342.79 1524.66 1348.8 1524.66 L1354.34 1524.66 Z" fill="#000000" fill-rule="nonzero" fill-opacity="1" /><path clip-path="url(#clip890)" d="M1405.55 1556.39 Q1405.55 1549.93 1402.88 1546.27 Q1400.24 1542.58 1395.59 1542.58 Q1390.94 1542.58 1388.27 1546.27 Q1385.63 1549.93 1385.63 1556.39 Q1385.63 1562.85 1388.27 1566.55 Q1390.94 1570.21 1395.59 1570.21 Q1400.24 1570.21 1402.88 1566.55 Q1405.55 1562.85 1405.55 1556.39 M1385.63 1543.95 Q1387.47 1540.77 1390.27 1539.24 Q1393.11 1537.68 1397.02 1537.68 Q1403.52 1537.68 1407.56 1542.83 Q1411.63 1547.99 1411.63 1556.39 Q1411.63 1564.8 1407.56 1569.95 Q1403.52 1575.11 1397.02 1575.11 Q1393.11 1575.11 1390.27 1573.58 Q1387.47 1572.02 1385.63 1568.84 L1385.63 1574.19 L1379.74 1574.19 L1379.74 1524.66 L1385.63 1524.66 L1385.63 1543.95 Z" fill="#000000" fill-rule="nonzero" fill-opacity="1" /><path clip-path="url(#clip890)" d="M1420.73 1560.12 L1420.73 1538.54 L1426.59 1538.54 L1426.59 1559.89 Q1426.59 1564.96 1428.56 1567.5 Q1430.54 1570.02 1434.48 1570.02 Q1439.23 1570.02 1441.96 1566.99 Q1444.73 1563.97 1444.73 1558.75 L1444.73 1538.54 L1450.59 1538.54 L1450.59 1574.19 L1444.73 1574.19 L1444.73 1568.71 Q1442.6 1571.96 1439.77 1573.55 Q1436.97 1575.11 1433.24 1575.11 Q1427.1 1575.11 1423.92 1571.29 Q1420.73 1567.47 1420.73 1560.12 M1435.47 1537.68 L1435.47 1537.68 Z" fill="#000000" fill-rule="nonzero" fill-opacity="1" /><path clip-path="url(#clip890)" d="M1485.38 1539.59 L1485.38 1545.13 Q1482.9 1543.85 1480.22 1543.22 Q1477.55 1542.58 1474.68 1542.58 Q1470.32 1542.58 1468.13 1543.92 Q1465.96 1545.25 1465.96 1547.93 Q1465.96 1549.96 1467.52 1551.14 Q1469.08 1552.29 1473.79 1553.34 L1475.8 1553.78 Q1482.04 1555.12 1484.65 1557.57 Q1487.29 1559.99 1487.29 1564.35 Q1487.29 1569.32 1483.34 1572.21 Q1479.43 1575.11 1472.55 1575.11 Q1469.69 1575.11 1466.57 1574.54 Q1463.48 1573.99 1460.04 1572.88 L1460.04 1566.83 Q1463.29 1568.52 1466.44 1569.38 Q1469.59 1570.21 1472.68 1570.21 Q1476.82 1570.21 1479.04 1568.81 Q1481.27 1567.37 1481.27 1564.8 Q1481.27 1562.41 1479.65 1561.14 Q1478.06 1559.86 1472.62 1558.68 L1470.58 1558.21 Q1465.14 1557.06 1462.72 1554.71 Q1460.3 1552.32 1460.3 1548.18 Q1460.3 1543.15 1463.86 1540.42 Q1467.43 1537.68 1473.98 1537.68 Q1477.23 1537.68 1480.09 1538.16 Q1482.96 1538.63 1485.38 1539.59 Z" fill="#000000" fill-rule="nonzero" fill-opacity="1" /><path clip-path="url(#clip890)" d="M1527.11 1554.9 L1527.11 1557.76 L1500.18 1557.76 Q1500.56 1563.81 1503.81 1566.99 Q1507.09 1570.14 1512.91 1570.14 Q1516.28 1570.14 1519.43 1569.32 Q1522.62 1568.49 1525.74 1566.83 L1525.74 1572.37 Q1522.59 1573.71 1519.28 1574.41 Q1515.97 1575.11 1512.56 1575.11 Q1504.03 1575.11 1499.03 1570.14 Q1494.07 1565.18 1494.07 1556.71 Q1494.07 1547.96 1498.78 1542.83 Q1503.52 1537.68 1511.54 1537.68 Q1518.73 1537.68 1522.9 1542.33 Q1527.11 1546.94 1527.11 1554.9 M1521.25 1553.18 Q1521.19 1548.37 1518.54 1545.51 Q1515.93 1542.64 1511.61 1542.64 Q1506.7 1542.64 1503.74 1545.41 Q1500.82 1548.18 1500.37 1553.21 L1521.25 1553.18 Z" fill="#000000" fill-rule="nonzero" fill-opacity="1" /><path clip-path="url(#clip890)" d="M1559.44 1539.59 L1559.44 1545.13 Q1556.96 1543.85 1554.29 1543.22 Q1551.61 1542.58 1548.75 1542.58 Q1544.39 1542.58 1542.19 1543.92 Q1540.03 1545.25 1540.03 1547.93 Q1540.03 1549.96 1541.59 1551.14 Q1543.15 1552.29 1547.86 1553.34 L1549.86 1553.78 Q1556.1 1555.12 1558.71 1557.57 Q1561.35 1559.99 1561.35 1564.35 Q1561.35 1569.32 1557.41 1572.21 Q1553.49 1575.11 1546.62 1575.11 Q1543.75 1575.11 1540.63 1574.54 Q1537.55 1573.99 1534.11 1572.88 L1534.11 1566.83 Q1537.35 1568.52 1540.51 1569.38 Q1543.66 1570.21 1546.74 1570.21 Q1550.88 1570.21 1553.11 1568.81 Q1555.34 1567.37 1555.34 1564.8 Q1555.34 1562.41 1553.71 1561.14 Q1552.12 1559.86 1546.68 1558.68 L1544.64 1558.21 Q1539.2 1557.06 1536.78 1554.71 Q1534.36 1552.32 1534.36 1548.18 Q1534.36 1543.15 1537.93 1540.42 Q1541.49 1537.68 1548.05 1537.68 Q1551.3 1537.68 1554.16 1538.16 Q1557.02 1538.63 1559.44 1539.59 Z" fill="#000000" fill-rule="nonzero" fill-opacity="1" /><polyline clip-path="url(#clip890)" style="stroke:#000000; stroke-linecap:round; stroke-linejoin:round; stroke-width:4; stroke-opacity:1; fill:none" points="222.69,1410.9 222.69,47.2441 "/>
<polyline clip-path="url(#clip890)" style="stroke:#000000; stroke-linecap:round; stroke-linejoin:round; stroke-width:4; stroke-opacity:1; fill:none" points="222.69,1410.9 241.588,1410.9 "/>
<polyline clip-path="url(#clip890)" style="stroke:#000000; stroke-linecap:round; stroke-linejoin:round; stroke-width:4; stroke-opacity:1; fill:none" points="222.69,956.346 241.588,956.346 "/>
<polyline clip-path="url(#clip890)" style="stroke:#000000; stroke-linecap:round; stroke-linejoin:round; stroke-width:4; stroke-opacity:1; fill:none" points="222.69,501.795 241.588,501.795 "/>
<polyline clip-path="url(#clip890)" style="stroke:#000000; stroke-linecap:round; stroke-linejoin:round; stroke-width:4; stroke-opacity:1; fill:none" points="222.69,47.2441 241.588,47.2441 "/>
<path clip-path="url(#clip890)" d="M116.906 1430.69 L124.545 1430.69 L124.545 1404.32 L116.235 1405.99 L116.235 1401.73 L124.499 1400.06 L129.175 1400.06 L129.175 1430.69 L136.814 1430.69 L136.814 1434.62 L116.906 1434.62 L116.906 1430.69 Z" fill="#000000" fill-rule="nonzero" fill-opacity="1" /><path clip-path="url(#clip890)" d="M156.258 1403.14 Q152.647 1403.14 150.818 1406.71 Q149.013 1410.25 149.013 1417.38 Q149.013 1424.49 150.818 1428.05 Q152.647 1431.59 156.258 1431.59 Q159.892 1431.59 161.698 1428.05 Q163.526 1424.49 163.526 1417.38 Q163.526 1410.25 161.698 1406.71 Q159.892 1403.14 156.258 1403.14 M156.258 1399.44 Q162.068 1399.44 165.124 1404.05 Q168.202 1408.63 168.202 1417.38 Q168.202 1426.11 165.124 1430.71 Q162.068 1435.3 156.258 1435.3 Q150.448 1435.3 147.369 1430.71 Q144.314 1426.11 144.314 1417.38 Q144.314 1408.63 147.369 1404.05 Q150.448 1399.44 156.258 1399.44 Z" fill="#000000" fill-rule="nonzero" fill-opacity="1" /><path clip-path="url(#clip890)" d="M180.898 1392.07 Q183.625 1392.66 185.148 1394.5 Q186.69 1396.34 186.69 1399.05 Q186.69 1403.21 183.832 1405.48 Q180.973 1407.76 175.707 1407.76 Q173.939 1407.76 172.058 1407.4 Q170.196 1407.06 168.202 1406.37 L168.202 1402.7 Q169.782 1403.62 171.663 1404.09 Q173.544 1404.56 175.594 1404.56 Q179.167 1404.56 181.029 1403.15 Q182.91 1401.74 182.91 1399.05 Q182.91 1396.57 181.161 1395.18 Q179.431 1393.77 176.327 1393.77 L173.055 1393.77 L173.055 1390.64 L176.478 1390.64 Q179.28 1390.64 180.766 1389.53 Q182.252 1388.41 182.252 1386.3 Q182.252 1384.14 180.709 1382.99 Q179.186 1381.82 176.327 1381.82 Q174.766 1381.82 172.979 1382.16 Q171.193 1382.5 169.049 1383.22 L169.049 1379.83 Q171.212 1379.23 173.092 1378.93 Q174.992 1378.63 176.666 1378.63 Q180.992 1378.63 183.512 1380.6 Q186.032 1382.56 186.032 1385.9 Q186.032 1388.24 184.697 1389.85 Q183.361 1391.45 180.898 1392.07 Z" fill="#000000" fill-rule="nonzero" fill-opacity="1" /><path clip-path="url(#clip890)" d="M114.931 976.138 L122.57 976.138 L122.57 949.773 L114.26 951.439 L114.26 947.18 L122.524 945.513 L127.2 945.513 L127.2 976.138 L134.839 976.138 L134.839 980.073 L114.931 980.073 L114.931 976.138 Z" fill="#000000" fill-rule="nonzero" fill-opacity="1" /><path clip-path="url(#clip890)" d="M154.283 948.592 Q150.672 948.592 148.843 952.157 Q147.038 955.699 147.038 962.828 Q147.038 969.935 148.843 973.499 Q150.672 977.041 154.283 977.041 Q157.917 977.041 159.723 973.499 Q161.552 969.935 161.552 962.828 Q161.552 955.699 159.723 952.157 Q157.917 948.592 154.283 948.592 M154.283 944.888 Q160.093 944.888 163.149 949.495 Q166.227 954.078 166.227 962.828 Q166.227 971.555 163.149 976.161 Q160.093 980.745 154.283 980.745 Q148.473 980.745 145.394 976.161 Q142.339 971.555 142.339 962.828 Q142.339 954.078 145.394 949.495 Q148.473 944.888 154.283 944.888 Z" fill="#000000" fill-rule="nonzero" fill-opacity="1" /><path clip-path="url(#clip890)" d="M178.904 927.893 L169.312 942.883 L178.904 942.883 L178.904 927.893 M177.907 924.583 L182.684 924.583 L182.684 942.883 L186.69 942.883 L186.69 946.043 L182.684 946.043 L182.684 952.663 L178.904 952.663 L178.904 946.043 L166.227 946.043 L166.227 942.375 L177.907 924.583 Z" fill="#000000" fill-rule="nonzero" fill-opacity="1" /><path clip-path="url(#clip890)" d="M117.226 521.587 L124.865 521.587 L124.865 495.222 L116.555 496.888 L116.555 492.629 L124.819 490.963 L129.494 490.963 L129.494 521.587 L137.133 521.587 L137.133 525.523 L117.226 525.523 L117.226 521.587 Z" fill="#000000" fill-rule="nonzero" fill-opacity="1" /><path clip-path="url(#clip890)" d="M156.578 494.041 Q152.967 494.041 151.138 497.606 Q149.332 501.148 149.332 508.277 Q149.332 515.384 151.138 518.949 Q152.967 522.49 156.578 522.49 Q160.212 522.49 162.017 518.949 Q163.846 515.384 163.846 508.277 Q163.846 501.148 162.017 497.606 Q160.212 494.041 156.578 494.041 M156.578 490.338 Q162.388 490.338 165.443 494.944 Q168.522 499.527 168.522 508.277 Q168.522 517.004 165.443 521.611 Q162.388 526.194 156.578 526.194 Q150.767 526.194 147.689 521.611 Q144.633 517.004 144.633 508.277 Q144.633 499.527 147.689 494.944 Q150.767 490.338 156.578 490.338 Z" fill="#000000" fill-rule="nonzero" fill-opacity="1" /><path clip-path="url(#clip890)" d="M169.707 470.032 L184.621 470.032 L184.621 473.229 L173.186 473.229 L173.186 480.113 Q174.014 479.831 174.841 479.699 Q175.669 479.549 176.497 479.549 Q181.198 479.549 183.944 482.126 Q186.69 484.702 186.69 489.103 Q186.69 493.636 183.869 496.156 Q181.048 498.658 175.913 498.658 Q174.146 498.658 172.302 498.357 Q170.478 498.056 168.522 497.454 L168.522 493.636 Q170.215 494.557 172.02 495.009 Q173.826 495.46 175.838 495.46 Q179.092 495.46 180.992 493.749 Q182.891 492.037 182.891 489.103 Q182.891 486.169 180.992 484.458 Q179.092 482.746 175.838 482.746 Q174.315 482.746 172.791 483.085 Q171.287 483.423 169.707 484.138 L169.707 470.032 Z" fill="#000000" fill-rule="nonzero" fill-opacity="1" /><path clip-path="url(#clip890)" d="M116.003 67.0365 L123.642 67.0365 L123.642 40.6709 L115.332 42.3376 L115.332 38.0784 L123.596 36.4117 L128.272 36.4117 L128.272 67.0365 L135.911 67.0365 L135.911 70.9717 L116.003 70.9717 L116.003 67.0365 Z" fill="#000000" fill-rule="nonzero" fill-opacity="1" /><path clip-path="url(#clip890)" d="M155.355 39.4904 Q151.744 39.4904 149.915 43.0552 Q148.11 46.5968 148.11 53.7264 Q148.11 60.8329 149.915 64.3977 Q151.744 67.9393 155.355 67.9393 Q158.989 67.9393 160.795 64.3977 Q162.624 60.8329 162.624 53.7264 Q162.624 46.5968 160.795 43.0552 Q158.989 39.4904 155.355 39.4904 M155.355 35.7867 Q161.165 35.7867 164.221 40.3932 Q167.3 44.9765 167.3 53.7264 Q167.3 62.4532 164.221 67.0597 Q161.165 71.643 155.355 71.643 Q149.545 71.643 146.466 67.0597 Q143.411 62.4532 143.411 53.7264 Q143.411 44.9765 146.466 40.3932 Q149.545 35.7867 155.355 35.7867 Z" fill="#000000" fill-rule="nonzero" fill-opacity="1" /><path clip-path="url(#clip890)" d="M177.324 28.0073 Q174.766 28.0073 173.262 29.7564 Q171.776 31.5055 171.776 34.5524 Q171.776 37.5804 173.262 39.3484 Q174.766 41.0975 177.324 41.0975 Q179.882 41.0975 181.368 39.3484 Q182.872 37.5804 182.872 34.5524 Q182.872 31.5055 181.368 29.7564 Q179.882 28.0073 177.324 28.0073 M184.866 16.102 L184.866 19.5626 Q183.437 18.8855 181.97 18.5282 Q180.521 18.1708 179.092 18.1708 Q175.33 18.1708 173.337 20.7099 Q171.362 23.2489 171.08 28.3834 Q172.19 26.7471 173.863 25.882 Q175.537 24.998 177.55 24.998 Q181.781 24.998 184.227 27.5747 Q186.69 30.1325 186.69 34.5524 Q186.69 38.8782 184.132 41.4924 Q181.575 44.1067 177.324 44.1067 Q172.453 44.1067 169.876 40.3828 Q167.3 36.64 167.3 29.5495 Q167.3 22.8916 170.459 18.9419 Q173.619 14.9735 178.942 14.9735 Q180.371 14.9735 181.819 15.2556 Q183.286 15.5377 184.866 16.102 Z" fill="#000000" fill-rule="nonzero" fill-opacity="1" /><path clip-path="url(#clip890)" d="M16.4842 1067.12 L16.4842 1058.46 L56.238 1037.39 L16.4842 1037.39 L16.4842 1031.15 L64.0042 1031.15 L64.0042 1039.81 L24.2503 1060.88 L64.0042 1060.88 L64.0042 1067.12 L16.4842 1067.12 Z" fill="#000000" fill-rule="nonzero" fill-opacity="1" /><path clip-path="url(#clip890)" d="M49.9359 1019.22 L28.3562 1019.22 L28.3562 1013.36 L49.7131 1013.36 Q54.7739 1013.36 57.3202 1011.39 Q59.8346 1009.42 59.8346 1005.47 Q59.8346 1000.73 56.8109 997.99 Q53.7872 995.221 48.5673 995.221 L28.3562 995.221 L28.3562 989.364 L64.0042 989.364 L64.0042 995.221 L58.5296 995.221 Q61.7762 997.353 63.3676 1000.19 Q64.9272 1002.99 64.9272 1006.71 Q64.9272 1012.85 61.1078 1016.04 Q57.2883 1019.22 49.9359 1019.22 M27.4968 1004.48 L27.4968 1004.48 Z" fill="#000000" fill-rule="nonzero" fill-opacity="1" /><path clip-path="url(#clip890)" d="M35.1993 949.547 Q31.2526 947.35 29.3747 944.295 Q27.4968 941.239 27.4968 937.102 Q27.4968 931.532 31.4117 928.508 Q35.2948 925.484 42.4881 925.484 L64.0042 925.484 L64.0042 931.373 L42.679 931.373 Q37.5546 931.373 35.072 933.187 Q32.5894 935.001 32.5894 938.725 Q32.5894 943.276 35.6131 945.918 Q38.6368 948.56 43.8567 948.56 L64.0042 948.56 L64.0042 954.448 L42.679 954.448 Q37.5228 954.448 35.072 956.262 Q32.5894 958.077 32.5894 961.864 Q32.5894 966.352 35.6449 968.994 Q38.6686 971.636 43.8567 971.636 L64.0042 971.636 L64.0042 977.524 L28.3562 977.524 L28.3562 971.636 L33.8944 971.636 Q30.616 969.63 29.0564 966.83 Q27.4968 964.029 27.4968 960.177 Q27.4968 956.294 29.4702 953.589 Q31.4436 950.852 35.1993 949.547 Z" fill="#000000" fill-rule="nonzero" fill-opacity="1" /><path clip-path="url(#clip890)" d="M46.212 888.213 Q39.7508 888.213 36.0905 890.887 Q32.3984 893.528 32.3984 898.175 Q32.3984 902.822 36.0905 905.496 Q39.7508 908.138 46.212 908.138 Q52.6732 908.138 56.3653 905.496 Q60.0256 902.822 60.0256 898.175 Q60.0256 893.528 56.3653 890.887 Q52.6732 888.213 46.212 888.213 M33.7671 908.138 Q30.5842 906.292 29.0564 903.491 Q27.4968 900.658 27.4968 896.743 Q27.4968 890.25 32.6531 886.208 Q37.8093 882.134 46.212 882.134 Q54.6147 882.134 59.771 886.208 Q64.9272 890.25 64.9272 896.743 Q64.9272 900.658 63.3994 903.491 Q61.8398 906.292 58.657 908.138 L64.0042 908.138 L64.0042 914.026 L14.479 914.026 L14.479 908.138 L33.7671 908.138 Z" fill="#000000" fill-rule="nonzero" fill-opacity="1" /><path clip-path="url(#clip890)" d="M44.7161 841.934 L47.5806 841.934 L47.5806 868.861 Q53.6281 868.479 56.8109 865.233 Q59.9619 861.954 59.9619 856.13 Q59.9619 852.756 59.1344 849.605 Q58.3069 846.422 56.6518 843.303 L62.1899 843.303 Q63.5267 846.454 64.227 849.764 Q64.9272 853.074 64.9272 856.48 Q64.9272 865.01 59.9619 870.007 Q54.9967 874.972 46.5303 874.972 Q37.7774 874.972 32.6531 870.262 Q27.4968 865.519 27.4968 857.498 Q27.4968 850.305 32.1438 846.136 Q36.7589 841.934 44.7161 841.934 M42.9973 847.791 Q38.1912 847.854 35.3266 850.496 Q32.4621 853.106 32.4621 857.435 Q32.4621 862.336 35.2312 865.296 Q38.0002 868.225 43.0292 868.67 L42.9973 847.791 Z" fill="#000000" fill-rule="nonzero" fill-opacity="1" /><path clip-path="url(#clip890)" d="M33.8307 811.665 Q33.2578 812.652 33.0032 813.83 Q32.7167 814.976 32.7167 816.376 Q32.7167 821.341 35.9632 824.015 Q39.1779 826.657 45.2253 826.657 L64.0042 826.657 L64.0042 832.545 L28.3562 832.545 L28.3562 826.657 L33.8944 826.657 Q30.6479 824.811 29.0883 821.851 Q27.4968 818.89 27.4968 814.657 Q27.4968 814.053 27.5923 813.32 Q27.656 812.588 27.8151 811.697 L33.8307 811.665 Z" fill="#000000" fill-rule="nonzero" fill-opacity="1" /><path clip-path="url(#clip890)" d="M32.4621 770.989 Q32.4621 775.699 36.1542 778.436 Q39.8145 781.174 46.212 781.174 Q52.6095 781.174 56.3017 778.468 Q59.9619 775.731 59.9619 770.989 Q59.9619 766.31 56.2698 763.572 Q52.5777 760.835 46.212 760.835 Q39.8781 760.835 36.186 763.572 Q32.4621 766.31 32.4621 770.989 M27.4968 770.989 Q27.4968 763.35 32.4621 758.989 Q37.4273 754.629 46.212 754.629 Q54.9649 754.629 59.9619 758.989 Q64.9272 763.35 64.9272 770.989 Q64.9272 778.659 59.9619 783.02 Q54.9649 787.348 46.212 787.348 Q37.4273 787.348 32.4621 783.02 Q27.4968 778.659 27.4968 770.989 Z" fill="#000000" fill-rule="nonzero" fill-opacity="1" /><path clip-path="url(#clip890)" d="M14.479 726.874 L19.3487 726.874 L19.3487 732.476 Q19.3487 735.627 20.6219 736.868 Q21.895 738.078 25.2052 738.078 L28.3562 738.078 L28.3562 728.434 L32.9077 728.434 L32.9077 738.078 L64.0042 738.078 L64.0042 743.966 L32.9077 743.966 L32.9077 749.568 L28.3562 749.568 L28.3562 743.966 L25.8736 743.966 Q19.9216 743.966 17.2162 741.197 Q14.479 738.428 14.479 732.412 L14.479 726.874 Z" fill="#000000" fill-rule="nonzero" fill-opacity="1" /><path clip-path="url(#clip890)" d="M42.4881 671.62 L64.0042 671.62 L64.0042 677.476 L42.679 677.476 Q37.6183 677.476 35.1038 679.45 Q32.5894 681.423 32.5894 685.37 Q32.5894 690.112 35.6131 692.849 Q38.6368 695.587 43.8567 695.587 L64.0042 695.587 L64.0042 701.475 L28.3562 701.475 L28.3562 695.587 L33.8944 695.587 Q30.6797 693.486 29.0883 690.653 Q27.4968 687.789 27.4968 684.065 Q27.4968 677.922 31.3163 674.771 Q35.1038 671.62 42.4881 671.62 Z" fill="#000000" fill-rule="nonzero" fill-opacity="1" /><path clip-path="url(#clip890)" d="M32.4621 646.125 Q32.4621 650.836 36.1542 653.573 Q39.8145 656.31 46.212 656.31 Q52.6095 656.31 56.3017 653.605 Q59.9619 650.868 59.9619 646.125 Q59.9619 641.446 56.2698 638.709 Q52.5777 635.972 46.212 635.972 Q39.8781 635.972 36.186 638.709 Q32.4621 641.446 32.4621 646.125 M27.4968 646.125 Q27.4968 638.486 32.4621 634.126 Q37.4273 629.765 46.212 629.765 Q54.9649 629.765 59.9619 634.126 Q64.9272 638.486 64.9272 646.125 Q64.9272 653.796 59.9619 658.156 Q54.9649 662.485 46.212 662.485 Q37.4273 662.485 32.4621 658.156 Q27.4968 653.796 27.4968 646.125 Z" fill="#000000" fill-rule="nonzero" fill-opacity="1" /><path clip-path="url(#clip890)" d="M42.4881 590.425 L64.0042 590.425 L64.0042 596.282 L42.679 596.282 Q37.6183 596.282 35.1038 598.255 Q32.5894 600.228 32.5894 604.175 Q32.5894 608.918 35.6131 611.655 Q38.6368 614.392 43.8567 614.392 L64.0042 614.392 L64.0042 620.28 L28.3562 620.28 L28.3562 614.392 L33.8944 614.392 Q30.6797 612.291 29.0883 609.459 Q27.4968 606.594 27.4968 602.87 Q27.4968 596.727 31.3163 593.576 Q35.1038 590.425 42.4881 590.425 Z" fill="#000000" fill-rule="nonzero" fill-opacity="1" /><path clip-path="url(#clip890)" d="M43.5384 581.704 L43.5384 564.549 L48.7583 564.549 L48.7583 581.704 L43.5384 581.704 Z" fill="#000000" fill-rule="nonzero" fill-opacity="1" /><path clip-path="url(#clip890)" d="M28.3562 557.769 L28.3562 529.951 L33.7034 529.951 L59.3254 551.976 L59.3254 529.951 L64.0042 529.951 L64.0042 558.565 L58.657 558.565 L33.035 536.54 L33.035 557.769 L28.3562 557.769 Z" fill="#000000" fill-rule="nonzero" fill-opacity="1" /><path clip-path="url(#clip890)" d="M44.7161 490.516 L47.5806 490.516 L47.5806 517.442 Q53.6281 517.061 56.8109 513.814 Q59.9619 510.536 59.9619 504.711 Q59.9619 501.337 59.1344 498.186 Q58.3069 495.003 56.6518 491.884 L62.1899 491.884 Q63.5267 495.035 64.227 498.345 Q64.9272 501.655 64.9272 505.061 Q64.9272 513.591 59.9619 518.588 Q54.9967 523.554 46.5303 523.554 Q37.7774 523.554 32.6531 518.843 Q27.4968 514.1 27.4968 506.08 Q27.4968 498.886 32.1438 494.717 Q36.7589 490.516 44.7161 490.516 M42.9973 496.372 Q38.1912 496.436 35.3266 499.077 Q32.4621 501.687 32.4621 506.016 Q32.4621 510.918 35.2312 513.878 Q38.0002 516.806 43.0292 517.251 L42.9973 496.372 Z" fill="#000000" fill-rule="nonzero" fill-opacity="1" /><path clip-path="url(#clip890)" d="M33.8307 460.247 Q33.2578 461.233 33.0032 462.411 Q32.7167 463.557 32.7167 464.957 Q32.7167 469.922 35.9632 472.596 Q39.1779 475.238 45.2253 475.238 L64.0042 475.238 L64.0042 481.126 L28.3562 481.126 L28.3562 475.238 L33.8944 475.238 Q30.6479 473.392 29.0883 470.432 Q27.4968 467.472 27.4968 463.238 Q27.4968 462.634 27.5923 461.902 Q27.656 461.17 27.8151 460.278 L33.8307 460.247 Z" fill="#000000" fill-rule="nonzero" fill-opacity="1" /><path clip-path="url(#clip890)" d="M32.4621 441.722 Q32.4621 446.433 36.1542 449.17 Q39.8145 451.908 46.212 451.908 Q52.6095 451.908 56.3017 449.202 Q59.9619 446.465 59.9619 441.722 Q59.9619 437.044 56.2698 434.306 Q52.5777 431.569 46.212 431.569 Q39.8781 431.569 36.186 434.306 Q32.4621 437.044 32.4621 441.722 M27.4968 441.722 Q27.4968 434.084 32.4621 429.723 Q37.4273 425.363 46.212 425.363 Q54.9649 425.363 59.9619 429.723 Q64.9272 434.084 64.9272 441.722 Q64.9272 449.393 59.9619 453.754 Q54.9649 458.082 46.212 458.082 Q37.4273 458.082 32.4621 453.754 Q27.4968 449.393 27.4968 441.722 Z" fill="#000000" fill-rule="nonzero" fill-opacity="1" /><path clip-path="url(#clip890)" d="M29.4065 392.929 L34.9447 392.929 Q33.6716 395.412 33.035 398.085 Q32.3984 400.759 32.3984 403.624 Q32.3984 407.984 33.7352 410.18 Q35.072 412.345 37.7456 412.345 Q39.7826 412.345 40.9603 410.785 Q42.1061 409.225 43.1565 404.515 L43.6021 402.51 Q44.9389 396.271 47.3897 393.661 Q49.8086 391.02 54.1691 391.02 Q59.1344 391.02 62.0308 394.966 Q64.9272 398.881 64.9272 405.756 Q64.9272 408.621 64.3543 411.74 Q63.8132 414.827 62.6992 418.265 L56.6518 418.265 Q58.3387 415.018 59.198 411.867 Q60.0256 408.716 60.0256 405.629 Q60.0256 401.491 58.6251 399.263 Q57.1929 397.035 54.6147 397.035 Q52.2276 397.035 50.9545 398.658 Q49.6813 400.25 48.5037 405.692 L48.0262 407.729 Q46.8804 413.172 44.5251 415.591 Q42.138 418.01 38.0002 418.01 Q32.9713 418.01 30.2341 414.445 Q27.4968 410.881 27.4968 404.324 Q27.4968 401.077 27.9743 398.213 Q28.4517 395.348 29.4065 392.929 Z" fill="#000000" fill-rule="nonzero" fill-opacity="1" /><circle clip-path="url(#clip891)" cx="362.869" cy="1138.12" r="14.4" fill="#0000ff" fill-rule="evenodd" fill-opacity="1" stroke="#000000" stroke-opacity="1" stroke-width="3.2"/>
<circle clip-path="url(#clip891)" cx="495.334" cy="1071.16" r="14.4" fill="#0000ff" fill-rule="evenodd" fill-opacity="1" stroke="#000000" stroke-opacity="1" stroke-width="3.2"/>
<circle clip-path="url(#clip891)" cx="516.641" cy="1090.75" r="14.4" fill="#0000ff" fill-rule="evenodd" fill-opacity="1" stroke="#000000" stroke-opacity="1" stroke-width="3.2"/>
<circle clip-path="url(#clip891)" cx="531.824" cy="1085.74" r="14.4" fill="#0000ff" fill-rule="evenodd" fill-opacity="1" stroke="#000000" stroke-opacity="1" stroke-width="3.2"/>
<circle clip-path="url(#clip891)" cx="543.297" cy="1019.39" r="14.4" fill="#0000ff" fill-rule="evenodd" fill-opacity="1" stroke="#000000" stroke-opacity="1" stroke-width="3.2"/>
<circle clip-path="url(#clip891)" cx="610.349" cy="1056.33" r="14.4" fill="#0000ff" fill-rule="evenodd" fill-opacity="1" stroke="#000000" stroke-opacity="1" stroke-width="3.2"/>
<circle clip-path="url(#clip891)" cx="624.34" cy="1064.15" r="14.4" fill="#0000ff" fill-rule="evenodd" fill-opacity="1" stroke="#000000" stroke-opacity="1" stroke-width="3.2"/>
<circle clip-path="url(#clip891)" cx="688.233" cy="1040.24" r="14.4" fill="#0000ff" fill-rule="evenodd" fill-opacity="1" stroke="#000000" stroke-opacity="1" stroke-width="3.2"/>
<circle clip-path="url(#clip891)" cx="688.402" cy="1040.24" r="14.4" fill="#0000ff" fill-rule="evenodd" fill-opacity="1" stroke="#000000" stroke-opacity="1" stroke-width="3.2"/>
<circle clip-path="url(#clip891)" cx="689.247" cy="969.698" r="14.4" fill="#0000ff" fill-rule="evenodd" fill-opacity="1" stroke="#000000" stroke-opacity="1" stroke-width="3.2"/>
<circle clip-path="url(#clip891)" cx="689.921" cy="1039.63" r="14.4" fill="#0000ff" fill-rule="evenodd" fill-opacity="1" stroke="#000000" stroke-opacity="1" stroke-width="3.2"/>
<circle clip-path="url(#clip891)" cx="689.921" cy="1037.95" r="14.4" fill="#0000ff" fill-rule="evenodd" fill-opacity="1" stroke="#000000" stroke-opacity="1" stroke-width="3.2"/>
<circle clip-path="url(#clip891)" cx="706.79" cy="1011.77" r="14.4" fill="#0000ff" fill-rule="evenodd" fill-opacity="1" stroke="#000000" stroke-opacity="1" stroke-width="3.2"/>
<circle clip-path="url(#clip891)" cx="707.602" cy="1004.33" r="14.4" fill="#0000ff" fill-rule="evenodd" fill-opacity="1" stroke="#000000" stroke-opacity="1" stroke-width="3.2"/>
<circle clip-path="url(#clip891)" cx="710.027" cy="1010.11" r="14.4" fill="#0000ff" fill-rule="evenodd" fill-opacity="1" stroke="#000000" stroke-opacity="1" stroke-width="3.2"/>
<circle clip-path="url(#clip891)" cx="710.188" cy="973.58" r="14.4" fill="#0000ff" fill-rule="evenodd" fill-opacity="1" stroke="#000000" stroke-opacity="1" stroke-width="3.2"/>
<circle clip-path="url(#clip891)" cx="732.687" cy="1022.74" r="14.4" fill="#0000ff" fill-rule="evenodd" fill-opacity="1" stroke="#000000" stroke-opacity="1" stroke-width="3.2"/>
<circle clip-path="url(#clip891)" cx="734.22" cy="993.844" r="14.4" fill="#0000ff" fill-rule="evenodd" fill-opacity="1" stroke="#000000" stroke-opacity="1" stroke-width="3.2"/>
<circle clip-path="url(#clip891)" cx="748.981" cy="1016.16" r="14.4" fill="#0000ff" fill-rule="evenodd" fill-opacity="1" stroke="#000000" stroke-opacity="1" stroke-width="3.2"/>
<circle clip-path="url(#clip891)" cx="785.182" cy="992.606" r="14.4" fill="#0000ff" fill-rule="evenodd" fill-opacity="1" stroke="#000000" stroke-opacity="1" stroke-width="3.2"/>
<circle clip-path="url(#clip891)" cx="860.422" cy="900.316" r="14.4" fill="#0000ff" fill-rule="evenodd" fill-opacity="1" stroke="#000000" stroke-opacity="1" stroke-width="3.2"/>
<circle clip-path="url(#clip891)" cx="866.211" cy="890.262" r="14.4" fill="#0000ff" fill-rule="evenodd" fill-opacity="1" stroke="#000000" stroke-opacity="1" stroke-width="3.2"/>
<circle clip-path="url(#clip891)" cx="928.65" cy="884.389" r="14.4" fill="#0000ff" fill-rule="evenodd" fill-opacity="1" stroke="#000000" stroke-opacity="1" stroke-width="3.2"/>
<circle clip-path="url(#clip891)" cx="930.456" cy="859.896" r="14.4" fill="#0000ff" fill-rule="evenodd" fill-opacity="1" stroke="#000000" stroke-opacity="1" stroke-width="3.2"/>
<circle clip-path="url(#clip891)" cx="934.642" cy="920.453" r="14.4" fill="#0000ff" fill-rule="evenodd" fill-opacity="1" stroke="#000000" stroke-opacity="1" stroke-width="3.2"/>
<circle clip-path="url(#clip891)" cx="951.786" cy="869.449" r="14.4" fill="#0000ff" fill-rule="evenodd" fill-opacity="1" stroke="#000000" stroke-opacity="1" stroke-width="3.2"/>
<circle clip-path="url(#clip891)" cx="959.374" cy="897.806" r="14.4" fill="#0000ff" fill-rule="evenodd" fill-opacity="1" stroke="#000000" stroke-opacity="1" stroke-width="3.2"/>
<circle clip-path="url(#clip891)" cx="1024.3" cy="838.738" r="14.4" fill="#0000ff" fill-rule="evenodd" fill-opacity="1" stroke="#000000" stroke-opacity="1" stroke-width="3.2"/>
<circle clip-path="url(#clip891)" cx="1086.19" cy="840.311" r="14.4" fill="#0000ff" fill-rule="evenodd" fill-opacity="1" stroke="#000000" stroke-opacity="1" stroke-width="3.2"/>
<circle clip-path="url(#clip891)" cx="1086.33" cy="840.202" r="14.4" fill="#0000ff" fill-rule="evenodd" fill-opacity="1" stroke="#000000" stroke-opacity="1" stroke-width="3.2"/>
<circle clip-path="url(#clip891)" cx="1088.11" cy="839.895" r="14.4" fill="#0000ff" fill-rule="evenodd" fill-opacity="1" stroke="#000000" stroke-opacity="1" stroke-width="3.2"/>
<circle clip-path="url(#clip891)" cx="1089.54" cy="839.502" r="14.4" fill="#0000ff" fill-rule="evenodd" fill-opacity="1" stroke="#000000" stroke-opacity="1" stroke-width="3.2"/>
<circle clip-path="url(#clip891)" cx="1144.43" cy="791.596" r="14.4" fill="#0000ff" fill-rule="evenodd" fill-opacity="1" stroke="#000000" stroke-opacity="1" stroke-width="3.2"/>
<circle clip-path="url(#clip891)" cx="1206.36" cy="745.334" r="14.4" fill="#0000ff" fill-rule="evenodd" fill-opacity="1" stroke="#000000" stroke-opacity="1" stroke-width="3.2"/>
<circle clip-path="url(#clip891)" cx="1251.21" cy="726.126" r="14.4" fill="#0000ff" fill-rule="evenodd" fill-opacity="1" stroke="#000000" stroke-opacity="1" stroke-width="3.2"/>
<circle clip-path="url(#clip891)" cx="1268.41" cy="727.781" r="14.4" fill="#0000ff" fill-rule="evenodd" fill-opacity="1" stroke="#000000" stroke-opacity="1" stroke-width="3.2"/>
<circle clip-path="url(#clip891)" cx="1287.72" cy="764.81" r="14.4" fill="#0000ff" fill-rule="evenodd" fill-opacity="1" stroke="#000000" stroke-opacity="1" stroke-width="3.2"/>
<circle clip-path="url(#clip891)" cx="1296.38" cy="714.634" r="14.4" fill="#0000ff" fill-rule="evenodd" fill-opacity="1" stroke="#000000" stroke-opacity="1" stroke-width="3.2"/>
<circle clip-path="url(#clip891)" cx="1309.41" cy="697.441" r="14.4" fill="#0000ff" fill-rule="evenodd" fill-opacity="1" stroke="#000000" stroke-opacity="1" stroke-width="3.2"/>
<circle clip-path="url(#clip891)" cx="1431.95" cy="678.122" r="14.4" fill="#0000ff" fill-rule="evenodd" fill-opacity="1" stroke="#000000" stroke-opacity="1" stroke-width="3.2"/>
<circle clip-path="url(#clip891)" cx="1594.29" cy="573.882" r="14.4" fill="#0000ff" fill-rule="evenodd" fill-opacity="1" stroke="#000000" stroke-opacity="1" stroke-width="3.2"/>
<circle clip-path="url(#clip891)" cx="1625.54" cy="581.78" r="14.4" fill="#0000ff" fill-rule="evenodd" fill-opacity="1" stroke="#000000" stroke-opacity="1" stroke-width="3.2"/>
<circle clip-path="url(#clip891)" cx="1701.52" cy="556.929" r="14.4" fill="#0000ff" fill-rule="evenodd" fill-opacity="1" stroke="#000000" stroke-opacity="1" stroke-width="3.2"/>
<circle clip-path="url(#clip891)" cx="1795.87" cy="570.001" r="14.4" fill="#0000ff" fill-rule="evenodd" fill-opacity="1" stroke="#000000" stroke-opacity="1" stroke-width="3.2"/>
<circle clip-path="url(#clip891)" cx="2240.66" cy="319.314" r="14.4" fill="#0000ff" fill-rule="evenodd" fill-opacity="1" stroke="#000000" stroke-opacity="1" stroke-width="3.2"/>
<polyline clip-path="url(#clip891)" style="stroke:#0000ff; stroke-linecap:round; stroke-linejoin:round; stroke-width:4; stroke-opacity:1; fill:none" stroke-dasharray="16, 10" points="362.869,1139.82 495.334,1083.29 516.641,1074.19 531.824,1067.71 543.297,1062.82 610.349,1034.2 624.34,1028.23 688.233,1000.96 688.402,1000.89 689.247,1000.53 689.921,1000.24 706.79,993.038 707.602,992.692 710.027,991.657 710.188,991.588 732.687,981.986 734.22,981.331 748.981,975.031 785.182,959.581 860.422,927.469 866.211,924.998 928.65,898.35 930.456,897.579 934.642,895.792 951.786,888.475 959.374,885.237 1024.3,857.526 1086.19,831.113 1086.33,831.052 1088.11,830.291 1089.54,829.684 1144.43,806.254 1206.36,779.823 1251.21,760.681 1268.41,753.343 1287.72,745.099 1296.38,741.403 1309.41,735.844 1431.95,683.544 1594.29,614.258 1625.54,600.922 1701.52,568.493 1795.87,528.223 2240.66,338.39 "/>
<circle clip-path="url(#clip891)" cx="362.869" cy="1133.13" r="14.4" fill="#ff0000" fill-rule="evenodd" fill-opacity="1" stroke="#000000" stroke-opacity="1" stroke-width="3.2"/>
<circle clip-path="url(#clip891)" cx="495.334" cy="1105.81" r="14.4" fill="#ff0000" fill-rule="evenodd" fill-opacity="1" stroke="#000000" stroke-opacity="1" stroke-width="3.2"/>
<circle clip-path="url(#clip891)" cx="516.641" cy="1079.09" r="14.4" fill="#ff0000" fill-rule="evenodd" fill-opacity="1" stroke="#000000" stroke-opacity="1" stroke-width="3.2"/>
<circle clip-path="url(#clip891)" cx="531.824" cy="1073.08" r="14.4" fill="#ff0000" fill-rule="evenodd" fill-opacity="1" stroke="#000000" stroke-opacity="1" stroke-width="3.2"/>
<circle clip-path="url(#clip891)" cx="543.297" cy="984.793" r="14.4" fill="#ff0000" fill-rule="evenodd" fill-opacity="1" stroke="#000000" stroke-opacity="1" stroke-width="3.2"/>
<circle clip-path="url(#clip891)" cx="610.349" cy="995.498" r="14.4" fill="#ff0000" fill-rule="evenodd" fill-opacity="1" stroke="#000000" stroke-opacity="1" stroke-width="3.2"/>
<circle clip-path="url(#clip891)" cx="624.34" cy="987.548" r="14.4" fill="#ff0000" fill-rule="evenodd" fill-opacity="1" stroke="#000000" stroke-opacity="1" stroke-width="3.2"/>
<circle clip-path="url(#clip891)" cx="688.233" cy="959.089" r="14.4" fill="#ff0000" fill-rule="evenodd" fill-opacity="1" stroke="#000000" stroke-opacity="1" stroke-width="3.2"/>
<circle clip-path="url(#clip891)" cx="688.402" cy="959.57" r="14.4" fill="#ff0000" fill-rule="evenodd" fill-opacity="1" stroke="#000000" stroke-opacity="1" stroke-width="3.2"/>
<circle clip-path="url(#clip891)" cx="689.247" cy="845.264" r="14.4" fill="#ff0000" fill-rule="evenodd" fill-opacity="1" stroke="#000000" stroke-opacity="1" stroke-width="3.2"/>
<circle clip-path="url(#clip891)" cx="689.921" cy="957.951" r="14.4" fill="#ff0000" fill-rule="evenodd" fill-opacity="1" stroke="#000000" stroke-opacity="1" stroke-width="3.2"/>
<circle clip-path="url(#clip891)" cx="689.921" cy="953.446" r="14.4" fill="#ff0000" fill-rule="evenodd" fill-opacity="1" stroke="#000000" stroke-opacity="1" stroke-width="3.2"/>
<circle clip-path="url(#clip891)" cx="706.79" cy="992.654" r="14.4" fill="#ff0000" fill-rule="evenodd" fill-opacity="1" stroke="#000000" stroke-opacity="1" stroke-width="3.2"/>
<circle clip-path="url(#clip891)" cx="707.602" cy="968.876" r="14.4" fill="#ff0000" fill-rule="evenodd" fill-opacity="1" stroke="#000000" stroke-opacity="1" stroke-width="3.2"/>
<circle clip-path="url(#clip891)" cx="710.027" cy="991.754" r="14.4" fill="#ff0000" fill-rule="evenodd" fill-opacity="1" stroke="#000000" stroke-opacity="1" stroke-width="3.2"/>
<circle clip-path="url(#clip891)" cx="710.188" cy="958.35" r="14.4" fill="#ff0000" fill-rule="evenodd" fill-opacity="1" stroke="#000000" stroke-opacity="1" stroke-width="3.2"/>
<circle clip-path="url(#clip891)" cx="732.687" cy="937.8" r="14.4" fill="#ff0000" fill-rule="evenodd" fill-opacity="1" stroke="#000000" stroke-opacity="1" stroke-width="3.2"/>
<circle clip-path="url(#clip891)" cx="734.22" cy="945.104" r="14.4" fill="#ff0000" fill-rule="evenodd" fill-opacity="1" stroke="#000000" stroke-opacity="1" stroke-width="3.2"/>
<circle clip-path="url(#clip891)" cx="748.981" cy="931.678" r="14.4" fill="#ff0000" fill-rule="evenodd" fill-opacity="1" stroke="#000000" stroke-opacity="1" stroke-width="3.2"/>
<circle clip-path="url(#clip891)" cx="785.182" cy="914.088" r="14.4" fill="#ff0000" fill-rule="evenodd" fill-opacity="1" stroke="#000000" stroke-opacity="1" stroke-width="3.2"/>
<circle clip-path="url(#clip891)" cx="860.422" cy="771.498" r="14.4" fill="#ff0000" fill-rule="evenodd" fill-opacity="1" stroke="#000000" stroke-opacity="1" stroke-width="3.2"/>
<circle clip-path="url(#clip891)" cx="866.211" cy="722.965" r="14.4" fill="#ff0000" fill-rule="evenodd" fill-opacity="1" stroke="#000000" stroke-opacity="1" stroke-width="3.2"/>
<circle clip-path="url(#clip891)" cx="928.65" cy="762.845" r="14.4" fill="#ff0000" fill-rule="evenodd" fill-opacity="1" stroke="#000000" stroke-opacity="1" stroke-width="3.2"/>
<circle clip-path="url(#clip891)" cx="930.456" cy="707.556" r="14.4" fill="#ff0000" fill-rule="evenodd" fill-opacity="1" stroke="#000000" stroke-opacity="1" stroke-width="3.2"/>
<circle clip-path="url(#clip891)" cx="934.642" cy="769.068" r="14.4" fill="#ff0000" fill-rule="evenodd" fill-opacity="1" stroke="#000000" stroke-opacity="1" stroke-width="3.2"/>
<circle clip-path="url(#clip891)" cx="951.786" cy="782.995" r="14.4" fill="#ff0000" fill-rule="evenodd" fill-opacity="1" stroke="#000000" stroke-opacity="1" stroke-width="3.2"/>
<circle clip-path="url(#clip891)" cx="959.374" cy="840.608" r="14.4" fill="#ff0000" fill-rule="evenodd" fill-opacity="1" stroke="#000000" stroke-opacity="1" stroke-width="3.2"/>
<circle clip-path="url(#clip891)" cx="1024.3" cy="740.618" r="14.4" fill="#ff0000" fill-rule="evenodd" fill-opacity="1" stroke="#000000" stroke-opacity="1" stroke-width="3.2"/>
<circle clip-path="url(#clip891)" cx="1086.19" cy="807.108" r="14.4" fill="#ff0000" fill-rule="evenodd" fill-opacity="1" stroke="#000000" stroke-opacity="1" stroke-width="3.2"/>
<circle clip-path="url(#clip891)" cx="1086.33" cy="807.201" r="14.4" fill="#ff0000" fill-rule="evenodd" fill-opacity="1" stroke="#000000" stroke-opacity="1" stroke-width="3.2"/>
<circle clip-path="url(#clip891)" cx="1088.11" cy="807.034" r="14.4" fill="#ff0000" fill-rule="evenodd" fill-opacity="1" stroke="#000000" stroke-opacity="1" stroke-width="3.2"/>
<circle clip-path="url(#clip891)" cx="1089.54" cy="806.627" r="14.4" fill="#ff0000" fill-rule="evenodd" fill-opacity="1" stroke="#000000" stroke-opacity="1" stroke-width="3.2"/>
<circle clip-path="url(#clip891)" cx="1144.43" cy="684.205" r="14.4" fill="#ff0000" fill-rule="evenodd" fill-opacity="1" stroke="#000000" stroke-opacity="1" stroke-width="3.2"/>
<circle clip-path="url(#clip891)" cx="1206.36" cy="716.037" r="14.4" fill="#ff0000" fill-rule="evenodd" fill-opacity="1" stroke="#000000" stroke-opacity="1" stroke-width="3.2"/>
<circle clip-path="url(#clip891)" cx="1251.21" cy="696.687" r="14.4" fill="#ff0000" fill-rule="evenodd" fill-opacity="1" stroke="#000000" stroke-opacity="1" stroke-width="3.2"/>
<circle clip-path="url(#clip891)" cx="1268.41" cy="557.337" r="14.4" fill="#ff0000" fill-rule="evenodd" fill-opacity="1" stroke="#000000" stroke-opacity="1" stroke-width="3.2"/>
<circle clip-path="url(#clip891)" cx="1287.72" cy="660.58" r="14.4" fill="#ff0000" fill-rule="evenodd" fill-opacity="1" stroke="#000000" stroke-opacity="1" stroke-width="3.2"/>
<circle clip-path="url(#clip891)" cx="1296.38" cy="571.036" r="14.4" fill="#ff0000" fill-rule="evenodd" fill-opacity="1" stroke="#000000" stroke-opacity="1" stroke-width="3.2"/>
<circle clip-path="url(#clip891)" cx="1309.41" cy="528.548" r="14.4" fill="#ff0000" fill-rule="evenodd" fill-opacity="1" stroke="#000000" stroke-opacity="1" stroke-width="3.2"/>
<circle clip-path="url(#clip891)" cx="1431.95" cy="655.359" r="14.4" fill="#ff0000" fill-rule="evenodd" fill-opacity="1" stroke="#000000" stroke-opacity="1" stroke-width="3.2"/>
<circle clip-path="url(#clip891)" cx="1594.29" cy="394.985" r="14.4" fill="#ff0000" fill-rule="evenodd" fill-opacity="1" stroke="#000000" stroke-opacity="1" stroke-width="3.2"/>
<circle clip-path="url(#clip891)" cx="1625.54" cy="463.373" r="14.4" fill="#ff0000" fill-rule="evenodd" fill-opacity="1" stroke="#000000" stroke-opacity="1" stroke-width="3.2"/>
<circle clip-path="url(#clip891)" cx="1701.52" cy="421.525" r="14.4" fill="#ff0000" fill-rule="evenodd" fill-opacity="1" stroke="#000000" stroke-opacity="1" stroke-width="3.2"/>
<circle clip-path="url(#clip891)" cx="1795.87" cy="455.086" r="14.4" fill="#ff0000" fill-rule="evenodd" fill-opacity="1" stroke="#000000" stroke-opacity="1" stroke-width="3.2"/>
<circle clip-path="url(#clip891)" cx="2240.66" cy="176.452" r="14.4" fill="#ff0000" fill-rule="evenodd" fill-opacity="1" stroke="#000000" stroke-opacity="1" stroke-width="3.2"/>
<polyline clip-path="url(#clip891)" style="stroke:#ff0000; stroke-linecap:round; stroke-linejoin:round; stroke-width:4; stroke-opacity:1; fill:none" stroke-dasharray="16, 10" points="362.869,1059.32 495.334,1002.78 516.641,993.689 531.824,987.21 543.297,982.313 610.349,953.695 624.34,947.724 688.233,920.455 688.402,920.383 689.247,920.022 689.921,919.735 706.79,912.535 707.602,912.188 710.027,911.153 710.188,911.084 732.687,901.482 734.22,900.828 748.981,894.528 785.182,879.077 860.422,846.965 866.211,844.495 928.65,817.846 930.456,817.075 934.642,815.288 951.786,807.972 959.374,804.733 1024.3,777.023 1086.19,750.61 1086.33,750.549 1088.11,749.788 1089.54,749.181 1144.43,725.751 1206.36,699.32 1251.21,680.178 1268.41,672.839 1287.72,664.595 1296.38,660.899 1309.41,655.34 1431.95,603.041 1594.29,533.755 1625.54,520.418 1701.52,487.99 1795.87,447.72 2240.66,257.887 "/>
<path clip-path="url(#clip890)" d="M293.693 248.219 L559.037 248.219 L559.037 92.6992 L293.693 92.6992  Z" fill="#ffffff" fill-rule="evenodd" fill-opacity="1"/>
<polyline clip-path="url(#clip890)" style="stroke:#000000; stroke-linecap:round; stroke-linejoin:round; stroke-width:4; stroke-opacity:1; fill:none" points="293.693,248.219 559.037,248.219 559.037,92.6992 293.693,92.6992 293.693,248.219 "/>
<circle clip-path="url(#clip890)" cx="388.362" cy="144.539" r="20.48" fill="#0000ff" fill-rule="evenodd" fill-opacity="1" stroke="#000000" stroke-opacity="1" stroke-width="4.55111"/>
<path clip-path="url(#clip890)" d="M486.967 125.593 L486.967 173 L483.032 173 L483.032 125.593 L486.967 125.593 Z" fill="#000000" fill-rule="nonzero" fill-opacity="1" /><path clip-path="url(#clip890)" d="M509.189 131.866 L502.846 149.065 L515.555 149.065 L509.189 131.866 M506.55 127.259 L511.851 127.259 L525.022 161.819 L520.161 161.819 L517.013 152.953 L501.434 152.953 L498.286 161.819 L493.356 161.819 L506.55 127.259 Z" fill="#000000" fill-rule="nonzero" fill-opacity="1" /><path clip-path="url(#clip890)" d="M535.369 125.593 L535.369 173 L531.434 173 L531.434 125.593 L535.369 125.593 Z" fill="#000000" fill-rule="nonzero" fill-opacity="1" /><circle clip-path="url(#clip890)" cx="388.362" cy="196.379" r="20.48" fill="#ff0000" fill-rule="evenodd" fill-opacity="1" stroke="#000000" stroke-opacity="1" stroke-width="4.55111"/>
<path clip-path="url(#clip890)" d="M486.967 177.433 L486.967 224.84 L483.032 224.84 L483.032 177.433 L486.967 177.433 Z" fill="#000000" fill-rule="nonzero" fill-opacity="1" /><path clip-path="url(#clip890)" d="M497.638 179.099 L502.314 179.099 L502.314 209.724 L519.143 209.724 L519.143 213.659 L497.638 213.659 L497.638 179.099 Z" fill="#000000" fill-rule="nonzero" fill-opacity="1" /><path clip-path="url(#clip890)" d="M529.351 177.433 L529.351 224.84 L525.416 224.84 L525.416 177.433 L529.351 177.433 Z" fill="#000000" fill-rule="nonzero" fill-opacity="1" /></svg>
